<?xml version="1.0" encoding="iso-8859-1"?>
<!-- Uploaded to: SVG Repo, www.svgrepo.com, Generator: SVG Repo Mixer Tools -->
<!DOCTYPE svg PUBLIC "-//W3C//DTD SVG 1.1//EN" "http://www.w3.org/Graphics/SVG/1.1/DTD/svg11.dtd">
<svg height="800px" width="800px" version="1.1" id="Capa_1" xmlns="http://www.w3.org/2000/svg" xmlns:xlink="http://www.w3.org/1999/xlink" 
	 viewBox="0 0 296.334 296.334" xml:space="preserve">
<g>
	<path style="fill:#FFFFFF;" d="M18.821,98.167H192.25h36.68c1.238-5.214,2.091-10.557,2.513-16H16.309
		C16.729,87.61,17.583,92.953,18.821,98.167z"/>
	<path style="fill:#A56905;" d="M123.876,182.043c44.432,0,83.623-28.523,99.886-67.876H192.25H23.989
		C40.252,153.52,79.444,182.043,123.876,182.043z"/>
	<path d="M256.001,98.167h-10.733c1.635-7.898,2.483-15.942,2.483-24c0-4.418-3.582-8-8-8H8c-4.418,0-8,3.582-8,8
		c0,31.859,13.212,63.5,36.249,86.812c23.62,23.901,54.74,37.064,87.627,37.064c23.242,0,45.598-6.583,65.051-18.876h66.908
		c22.331,0,40.499-18.168,40.499-40.5C296.334,116.335,278.24,98.167,256.001,98.167z M228.93,98.167h-36.68H18.821
		c-1.238-5.214-2.092-10.557-2.513-16h215.134C231.02,87.61,230.168,92.953,228.93,98.167z M192.25,114.167h31.512
		c-16.263,39.353-55.454,67.876-99.886,67.876c-44.432,0-83.624-28.523-99.887-67.876H192.25z M255.835,163.167h-46.548
		c0.745-0.719,1.483-1.448,2.215-2.189c13.215-13.372,23.188-29.488,29.299-46.812h15.2c13.417,0,24.333,10.99,24.333,24.5
		S269.344,163.167,255.835,163.167z"/>
	<path d="M239.25,214.167h-231c-4.418,0-8,3.582-8,8c0,4.418,3.582,8,8,8h231c4.418,0,8-3.582,8-8
		C247.25,217.749,243.668,214.167,239.25,214.167z"/>
</g>
</svg>